<svg width="217" height="70" viewBox="0 0 217 70" fill="none" xmlns="http://www.w3.org/2000/svg">
<g clip-path="url(#clip0_49_50)">
<path d="M59.8608 8.39689C59.3048 13.3918 58.8894 18.1424 58.2211 22.8558C57.523 27.7729 56.761 32.6931 55.6991 37.5418C54.1297 44.7067 51.4609 51.4531 46.951 57.3595C42.6082 63.0451 37.0068 67.0864 30.4325 69.8382C30.1405 69.9611 29.7032 69.9456 29.4081 69.8211C19.1656 65.5076 11.9026 58.2244 7.5707 48.0293C4.85508 41.6407 3.33721 34.9331 2.38307 28.0996C1.60384 22.5104 1.02448 16.8949 0.363927 11.2887C0.251492 10.3382 0.21089 9.37844 0.0765934 8.43111C-0.00304803 7.86644 0.377981 7.85867 0.718409 7.76689C3.39967 7.04356 6.08406 6.32644 8.76532 5.60156C15.4083 3.808 22.0529 2.01444 28.6929 0.209999C29.4783 -0.00311255 30.2107 -0.0777792 31.0415 0.149332C40.3096 2.68178 49.5901 5.16756 58.8629 7.67667C59.3423 7.80733 60.0903 7.75911 59.8608 8.39689ZM32.7468 27.6687C28.7787 23.7191 24.3173 22.8807 19.2265 25.1953C19.2265 24.1049 19.1983 23.0969 19.2327 22.092C19.2874 20.51 18.8095 19.1333 17.7336 17.9698C16.6248 16.772 15.2725 15.9724 13.6703 15.4078C13.6484 15.75 13.6234 15.9522 13.6234 16.156C13.6219 22.3767 13.6125 28.5973 13.6344 34.818C13.6375 35.5864 13.7499 36.3704 13.9264 37.1218C15.4162 43.4327 21.9499 46.9762 28.087 44.8436C29.9 44.2136 31.3819 43.1153 32.7265 41.6951C35.959 45.5824 40.308 45.7333 44.8507 45.388C44.8507 43.722 44.8507 42.0513 44.8507 40.2967C44.2838 40.2967 43.7701 40.306 43.2563 40.2951C42.0617 40.2702 40.8327 40.4024 39.6802 40.1707C37.0099 39.634 35.289 37.3784 35.2922 34.692C35.2937 31.9947 36.9974 29.7998 39.6896 29.2211C42.5911 28.5989 43.8122 26.446 44.846 23.9944C40.283 23.6491 35.973 23.8513 32.7468 27.6687Z" fill="black"/>
<path d="M68.832 40.6513C68.832 32.7413 68.832 24.8298 68.832 16.8762C74.4179 16.8762 79.9475 16.8762 85.6473 16.8762C85.6473 17.6556 85.7191 18.4271 85.6317 19.1784C85.4865 20.4229 84.7447 20.9829 83.3361 20.9876C80.266 20.9984 77.1959 20.9907 74.1258 20.9922C73.8448 20.9922 73.5637 20.9922 73.2232 20.9922C73.2232 22.6831 73.2232 24.2993 73.2232 26.054C73.5481 26.054 73.8744 26.0431 74.1977 26.0556C76.3496 26.1442 78.5249 26.0758 80.6486 26.3713C83.4548 26.7633 85.602 28.2396 86.2313 31.1656C86.8872 34.2191 86.653 37.1327 83.9374 39.2731C82.7131 40.2376 81.2467 40.6731 79.7226 40.6996C76.1856 40.7618 72.647 40.7182 69.1084 40.7136C69.0335 40.7136 68.9601 40.6809 68.832 40.6513ZM73.2076 36.7422C75.4017 36.6411 77.5551 36.6442 79.682 36.4078C81.2374 36.2351 82.0338 35.14 82.0853 33.6218C82.1415 31.9527 81.4076 30.6911 79.8241 30.4733C77.6597 30.1762 75.4516 30.1949 73.2076 30.0751C73.2076 32.3789 73.2076 34.4633 73.2076 36.7422Z" fill="black"/>
<path d="M172.011 16.8809C172.011 17.6836 172.08 18.4364 171.996 19.1722C171.863 20.3358 170.973 20.9813 169.577 20.9876C166.611 21 163.644 20.9922 160.679 20.9922C160.086 20.9922 159.492 20.9922 158.844 20.9922C158.844 22.8356 158.844 24.6058 158.844 26.474C159.144 26.474 159.42 26.474 159.698 26.474C162.69 26.474 165.682 26.4647 168.674 26.4802C169.992 26.4864 170.878 27.2238 170.978 28.3313C171.096 29.638 170.158 30.6164 168.724 30.6227C165.732 30.6367 162.74 30.6273 159.748 30.6273C159.466 30.6273 159.185 30.6273 158.844 30.6273C158.844 32.6138 158.844 34.5427 158.844 36.5696C163.217 36.5696 167.595 36.5696 172.046 36.5696C172.046 37.5107 172.119 38.3631 172.026 39.1969C171.93 40.04 171.039 40.712 170.102 40.7167C166.095 40.7322 162.088 40.7633 158.082 40.7058C156.058 40.6762 154.459 38.9262 154.445 36.8589C154.423 33.6202 154.445 30.38 154.437 27.1398C154.429 23.9524 154.412 20.7651 154.386 17.5793C154.381 17.1002 154.439 16.8233 155.048 16.8249C160.563 16.8467 166.079 16.8389 171.595 16.8404C171.698 16.8389 171.801 16.8591 172.011 16.8809Z" fill="black"/>
<path d="M94.0627 20.9907C94.0627 22.8356 94.0627 24.5871 94.0627 26.4273C94.3422 26.4429 94.617 26.4693 94.8903 26.4709C97.8839 26.474 100.876 26.4631 103.87 26.4787C105.197 26.4865 106.085 27.2316 106.159 28.3329C106.248 29.6847 105.355 30.6149 103.912 30.6211C100.945 30.6351 97.9776 30.6258 95.0106 30.6258C94.7263 30.6258 94.4406 30.6258 94.0861 30.6258C94.0861 32.5951 94.0861 34.5224 94.0861 36.5618C98.4429 36.5618 102.82 36.5618 107.244 36.5618C107.244 37.5169 107.324 38.3709 107.222 39.2016C107.119 40.0416 106.212 40.7105 105.286 40.7136C101.33 40.7276 97.3732 40.7524 93.4177 40.7058C91.3611 40.6809 89.7152 39.0149 89.698 36.8371C89.6449 30.2789 89.6808 23.7191 89.684 17.1593C89.684 17.0862 89.7167 17.0131 89.748 16.8871C95.5368 16.8871 101.329 16.8871 107.303 16.8871C107.233 17.7924 107.26 18.7227 107.063 19.6047C106.86 20.5224 106.001 20.9782 104.783 20.9844C101.999 20.9969 99.2128 20.9891 96.4285 20.9891C95.6555 20.9907 94.8825 20.9907 94.0627 20.9907Z" fill="black"/>
<path d="M130.259 40.7307C130.259 40.3464 130.259 40.0664 130.259 39.788C130.259 33.698 130.258 27.608 130.261 21.518C130.261 21.1307 130.254 20.7356 130.317 20.356C130.695 18.0849 131.924 16.982 134.376 16.87C136.271 16.7844 138.172 16.8389 140.071 16.8358C142.204 16.8327 144.337 16.8233 146.47 16.8389C149.292 16.8591 150.821 18.2964 150.835 21.0793C150.871 27.454 150.847 33.8287 150.844 40.2033C150.844 40.3511 150.813 40.5004 150.791 40.712C149.927 40.712 149.095 40.7727 148.277 40.6964C147.212 40.5984 146.5 39.6713 146.498 38.5016C146.495 33.0073 146.497 27.5147 146.497 22.0204C146.497 21.7124 146.497 21.4044 146.497 20.9098C145.449 20.9098 144.448 20.9098 143.447 20.9098C140.794 20.9098 138.139 20.9347 135.486 20.8927C134.769 20.8818 134.629 21.1291 134.632 21.784C134.655 27.2518 134.663 32.7196 134.621 38.1873C134.616 38.8142 134.39 39.5189 134.043 40.0384C133.801 40.4009 133.193 40.6358 132.719 40.7027C131.958 40.8084 131.17 40.7307 130.259 40.7307Z" fill="black"/>
<path d="M181.631 29.9304C180.917 30.7362 180.266 31.4347 179.665 32.1751C179.507 32.3696 179.452 32.6947 179.449 32.9591C179.431 34.7464 179.446 36.5353 179.438 38.3227C179.431 39.8673 178.567 40.7167 177.02 40.7213C176.403 40.7229 175.786 40.7213 175.128 40.7213C175.128 32.7429 175.128 24.8516 175.128 16.9058C176.031 16.9058 176.943 16.8047 177.821 16.9322C178.853 17.0816 179.428 17.9044 179.435 19.0104C179.451 21.1089 179.44 23.2073 179.442 25.3073C179.442 25.5873 179.442 25.8658 179.442 26.3916C179.946 25.9016 180.308 25.5624 180.655 25.2093C183.141 22.6707 185.616 20.1211 188.112 17.5902C189.013 16.6771 190.167 16.5807 191.058 17.2853C192.117 18.1207 192.18 19.46 191.149 20.5551C189.283 22.5384 187.406 24.5124 185.49 26.4476C185.021 26.9204 185.004 27.2004 185.416 27.7184C187.776 30.6771 190.096 33.6684 192.429 36.6473C192.589 36.8511 192.757 37.0502 192.906 37.2633C193.677 38.3584 193.547 39.5547 192.578 40.306C191.636 41.0371 190.248 40.8675 189.448 39.872C188.037 38.1127 186.656 36.3269 185.262 34.5536C184.115 33.0898 182.966 31.6291 181.631 29.9304Z" fill="black"/>
<path d="M117.331 30.2913C117.331 28.9442 117.331 27.6842 117.331 26.4087C118.214 26.3293 119.073 26.3216 119.904 26.1629C121.32 25.8922 121.953 25.0958 121.956 23.7502C121.959 22.3518 121.242 21.3267 119.879 21.1618C118.708 21.0202 117.491 21.0404 116.319 21.1851C115.137 21.3313 114.546 22.26 114.449 23.7004C114.329 25.4987 113.264 26.2764 111.521 25.8362C110.506 25.5796 110.016 24.9589 109.977 23.8762C109.869 20.9129 111.468 18.5204 114.285 17.5311C116.895 16.6149 119.545 16.52 122.161 17.4658C125.357 18.6216 126.463 21.266 126.378 24.192C126.335 25.6931 125.712 26.9298 124.59 27.9844C125.718 28.9162 126.675 29.9009 126.875 31.3056C127.515 35.7778 125.78 39.6278 120.594 40.5471C118.442 40.9282 116.287 40.8458 114.211 40.096C111.192 39.0056 109.602 36.6987 109.607 33.5067C109.609 32.0413 110.369 31.1656 111.749 31.038C112.913 30.9307 114.061 31.8064 114.064 33.1536C114.07 35.7451 116.077 36.6411 118.143 36.5929C118.61 36.582 119.081 36.5602 119.537 36.4731C121.698 36.064 122.92 34.1476 122.403 32.0118C122.168 31.0427 121.466 30.3769 120.427 30.3069C119.425 30.24 118.411 30.2913 117.331 30.2913Z" fill="black"/>
<path d="M216.074 38.5482C215.986 39.6433 215.311 40.4818 214.29 40.6933C213.235 40.9111 212.234 40.3776 211.785 39.3027C211.237 37.9882 210.723 36.6598 210.205 35.3344C209.482 33.488 209.485 33.4864 207.493 33.4864C205.748 33.4864 204.006 33.5004 202.261 33.4771C201.797 33.4709 201.571 33.6264 201.412 34.0667C200.803 35.7451 200.156 37.4096 199.516 39.0756C199.177 39.9576 198.587 40.586 197.614 40.7167C195.91 40.9438 194.741 39.3898 195.373 37.6958C196.297 35.2224 197.272 32.7662 198.231 30.3053C199.686 26.5642 201.143 22.8247 202.606 19.0867C203.248 17.4471 204.212 16.6678 205.608 16.7036C207.182 16.744 208.002 17.7131 208.536 19.0789C210.916 25.1549 213.322 31.22 215.71 37.2929C215.869 37.6973 215.955 38.1298 216.074 38.5482ZM207.945 29.302C207.149 27.3047 206.399 25.424 205.576 23.3613C204.735 25.452 203.97 27.3529 203.156 29.3704C204.636 29.3704 205.958 29.372 207.279 29.3673C207.455 29.3689 207.628 29.3347 207.945 29.302Z" fill="black"/>
<path d="M71.2714 54.7571C73.253 54.7571 75.141 54.7571 77.1539 54.7571C77.1539 54.4849 77.1539 54.2111 77.1539 53.9373C77.1539 51.0362 77.157 48.1367 77.1508 45.2356C77.1492 44.6538 77.2741 44.1467 77.8597 43.8884C78.7655 43.4887 79.59 44.0953 79.5962 45.1951C79.6118 47.5253 79.5993 49.8571 79.6025 52.1873C79.604 52.9636 79.6431 53.7413 79.6243 54.5176C79.6118 55.0387 79.8148 55.3047 80.3114 55.4882C80.6409 55.6111 81.1047 55.9098 81.1406 56.1789C81.2593 57.0609 81.2734 57.9709 81.1859 58.8576C81.1609 59.1142 80.6768 59.486 80.3786 59.5093C80.0866 59.5327 79.7571 59.192 79.4588 58.9882C79.387 58.9384 79.3667 58.8078 79.3308 58.7098C78.6452 56.8493 78.8389 57.2211 77.0696 57.1869C74.9146 57.1464 72.7564 57.1729 70.6045 57.0733C69.4708 57.0204 68.8118 56.3376 68.7978 55.2129C68.7509 51.562 68.7744 47.9096 68.7837 44.2587C68.7837 44.1078 68.8759 43.8807 68.993 43.8169C69.9643 43.3004 71.1901 44.0564 71.1995 45.164C71.2245 48.0636 71.2464 50.9631 71.2682 53.8611C71.2729 54.1411 71.2714 54.4211 71.2714 54.7571Z" fill="black"/>
<path d="M101.708 48.7931C101.708 47.3527 101.733 45.9309 101.696 44.5122C101.68 43.9367 101.846 43.7096 102.441 43.7593C102.976 43.8044 103.52 43.7687 104.101 43.7687C104.101 48.2611 104.101 52.6587 104.101 57.1775C103.431 57.1775 102.763 57.2133 102.102 57.1495C101.954 57.1355 101.73 56.7731 101.726 56.5678C101.693 55.09 101.708 53.6122 101.708 52.1344C101.708 51.8498 101.708 51.5667 101.708 51.2167C99.7346 51.2167 97.7982 51.2167 95.7666 51.2167C95.7666 53.1502 95.7666 55.1071 95.7666 57.1231C94.9077 57.1231 94.1425 57.1231 93.3164 57.1231C93.3164 52.7007 93.3164 48.2876 93.3164 43.8216C94.0956 43.8216 94.8608 43.8216 95.6994 43.8216C95.6994 45.4767 95.6994 47.0991 95.6994 48.7931C97.7045 48.7931 99.6377 48.7931 101.708 48.7931Z" fill="black"/>
<path d="M84.156 54.8069C86.5765 54.8069 88.9611 54.8069 91.3191 54.8069C91.7267 56.252 91.3347 57.1993 89.7153 57.1216C87.743 57.0282 85.7645 57.1122 83.7875 57.092C82.5663 57.0796 81.6825 56.2536 81.6747 55.062C81.6528 51.4096 81.6684 47.7587 81.6731 44.1062C81.6731 44.0316 81.7028 43.9553 81.7309 43.8247C84.9072 43.8247 88.0913 43.8247 91.266 43.8247C91.6642 45.4845 91.1957 46.1067 89.5639 46.1113C87.7743 46.116 85.9862 46.1129 84.1358 46.1129C84.1358 47.1551 84.1358 48.1211 84.1358 49.1742C85.7942 49.1742 87.4245 49.1742 89.0563 49.1742C90.24 49.1742 90.8288 49.5569 90.8272 50.3207C90.8256 51.1078 90.2541 51.4858 89.0642 51.4889C87.5041 51.492 85.9441 51.4967 84.384 51.5013C84.3341 51.5013 84.2841 51.5247 84.1545 51.5573C84.1561 52.5778 84.156 53.6184 84.156 54.8069Z" fill="black"/>
<path d="M117.092 43.8496C117.345 43.8169 117.52 43.7718 117.695 43.7749C119.667 43.7982 121.648 43.7142 123.608 43.8869C125.834 44.0829 127.119 45.8562 126.981 48.2207C126.86 50.33 125.276 51.856 123.116 51.9089C121.976 51.9369 120.836 51.9136 119.559 51.9136C119.559 52.4129 119.559 52.8656 119.559 53.3167C119.559 54.1442 119.576 54.9733 119.553 55.8009C119.531 56.6222 118.981 57.1931 118.279 57.176C117.577 57.1573 117.115 56.6533 117.101 55.8196C117.079 54.5782 117.093 53.3353 117.093 52.0924C117.093 49.6347 117.093 47.1753 117.093 44.7176C117.092 44.4376 117.092 44.1576 117.092 43.8496ZM119.62 49.5413C120.838 49.5413 122.028 49.6222 123.201 49.5149C124.089 49.434 124.516 48.776 124.517 47.8784C124.52 46.9793 124.063 46.256 123.249 46.1953C122.05 46.1051 120.836 46.172 119.559 46.172C119.559 47.1582 119.556 48.0838 119.562 49.0093C119.564 49.182 119.6 49.3562 119.62 49.5413Z" fill="black"/>
<path d="M109.368 46.1145C108.494 46.1145 107.694 46.1222 106.895 46.1129C105.622 46.0973 105.1 45.4564 105.383 44.2073C105.422 44.0347 105.703 43.792 105.875 43.7904C108.812 43.7671 111.751 43.7593 114.688 43.7889C115.352 43.7951 115.836 44.1638 115.852 44.8933C115.867 45.6136 115.421 46.018 114.751 46.0616C113.825 46.1222 112.891 46.0771 111.879 46.0771C111.859 46.4893 111.832 46.788 111.832 47.0867C111.829 49.8836 111.832 52.6805 111.829 55.4789C111.828 56.8011 111.425 57.1605 110.119 57.204C109.452 57.2258 109.354 56.9536 109.357 56.3842C109.377 53.3276 109.367 50.2725 109.367 47.2158C109.368 46.8813 109.368 46.5485 109.368 46.1145Z" fill="black"/>
<path d="M24.4937 40.2951C21.2659 40.2998 18.8173 37.8622 18.8267 34.6516C18.8361 31.5482 21.2971 29.1013 24.4266 29.0827C27.5638 29.064 30.1092 31.5622 30.117 34.6656C30.1248 37.8016 27.6388 40.2905 24.4937 40.2951Z" fill="black"/>
</g>
<defs>
<clipPath id="clip0_49_50">
<rect width="216.125" height="70" fill="white"/>
</clipPath>
</defs>
</svg>
