<svg width="21" height="20" viewBox="0 0 21 20" fill="none" xmlns="http://www.w3.org/2000/svg">
<path fill-rule="evenodd" clip-rule="evenodd" d="M0 10C0 4.5 4.5625 0 10.25 0C15.9375 0 20.5 4.5 20.5 10C20.5 15.5 15.9375 20 10.25 20C9.125 20 8.0625 19.8125 7.0625 19.5C7.8125 15.375 10.4375 12 14 10.5625C14.4375 11.0625 15.0625 11.3125 15.75 11.3125C17 11.3125 18 10.3125 18 9.0625C18 7.8125 17 6.8125 15.75 6.8125C14.5 6.8125 13.5 7.8125 13.5 9.0625C9 10.375 5.375 13.4375 3.5 17.375C2.9375 16.875 2.375 16.3125 1.9375 15.625C2.0625 11.8125 4 8.4375 6.875 6.4375C7.3125 6.9375 7.9375 7.1875 8.5625 7.1875C9.8125 7.1875 10.8125 6.1875 10.8125 4.9375C10.8125 3.6875 9.8125 2.6875 8.5625 2.6875C7.3125 2.6875 6.3125 3.6875 6.3125 4.9375C6.3125 5 6.3125 5.0625 6.3125 5.125C3.625 6.0625 1.375 7.875 0.0625 10.25C0 10.25 0 10.125 0 10Z" fill="#FCCF00"/>
</svg>
